<?xml version="1.0" standalone="yes"?>
<svg xmlns="http://www.w3.org/2000/svg" width="215" height="230">
<path style="fill:#010101; stroke:none;" d="M0 0L0 230L215 230L215 0L0 0z"/>
<path style="fill:#092d75; stroke:none;" d="M8 71C74.8988 58.0263 140.106 58.0273 207 71C207.108 57.9872 209 45.0485 209 32C209 27.5543 210.294 20.2973 207.142 16.6528C204.464 13.5568 198.759 13.3155 195 12.6111C184.729 10.6867 174.372 9.08604 164 7.84491C124.99 3.17682 83.9341 2.94164 45 8.57947C36.2056 9.85294 13.9149 9.65036 7.85802 16.6528C4.70565 20.2973 6 27.5544 6 32C6 45.0486 7.89228 57.9872 8 71z"/>
<path style="fill:#010101; stroke:none;" d="M32 58C83.416 51.4679 131.574 51.4666 183 58C181.304 52.0674 178.364 46.6193 175.861 41C173.36 35.3831 171.285 27.9753 167.351 23.213C152.416 5.13188 124.856 20.9615 107 20.1566C89.2096 19.3547 63.8705 6.74663 48.3935 22.3904C43.9019 26.9304 41.7091 35.2286 39.1389 41C36.6364 46.6193 33.696 52.0674 32 58z"/>
<path style="fill:#092d75; stroke:none;" d="M43 50L103 47C96.0572 35.6105 67.4459 39 56 39L62 22C50.6223 25.1152 44.9658 38.9376 43 50M153 22L158 39L112 44L112 47L172 50C168.973 38.9345 164.831 25.3859 153 22M10 79C10.8709 121.197 38.2306 165.277 67 194C77.269 204.252 90.1595 215.933 104 221L104 69C72.0706 69 41.4981 74.9323 10 79M111 69C111 74.7142 108.865 85.8161 112.603 90.4823C116.92 95.8694 126.711 97.397 129.397 104.093C133.558 114.469 130 132.812 130 144L111 132L111 221C116.746 218.896 126.725 214.086 129.972 208.674C132.591 204.311 131 195.934 131 191L131 147C136.136 149.86 144.993 153.949 147.972 159.184C152.234 166.675 149 183.45 149 192C157.696 185.874 164.433 176.591 170.573 168C187.861 143.809 204.374 109.336 205 79L186 76L186 138L169.028 124.907L168 109L168 73L149 71L149 113C143.975 109.61 135.194 105.951 132.028 100.674C127.933 93.8499 131 77.8819 131 70L111 69z"/>
<path style="fill:#010101; stroke:none;" d="M57 86.4645C13.7098 94.2696 26.3069 161.233 69 153.535C112.592 145.676 100.499 78.6218 57 86.4645z"/>
<path style="fill:#092d75; stroke:none;" d="M41 101C49.5086 103.669 52.7854 98.6442 56 91C49.8908 92.4518 43.9376 95.216 41 101M71 91C73.6885 99.4369 77.2565 103.767 86 101C82.142 95.6519 77.1377 93.0899 71 91M59 94L54 104L61 105L61 94L59 94M65 94L65 105L73 104L65 94M38 104L34 118L46 118C46.1792 109.318 47.0098 106.94 38 104M79 107L81 118L93 118L89 104L79 107M51 108L50 118L61 118L61 109L51 108M65 109L65 118L77 118C75.8018 108.73 73.5965 108.632 65 109z"/>
<path style="fill:#010101; stroke:none;" d="M150 116L150 145L151.028 157.482L167 168C167 157.629 171.112 136.218 165.972 127.184C163.169 122.257 154.968 118.35 150 116z"/>
<path style="fill:#092d75; stroke:none;" d="M34 122C34.22 132.329 37.2166 135.236 47 133L46 122L34 122M50 122L52 132L61 131L61 122L50 122M65 122L65 131L75 132L77 122L65 122M81 122L79 133C88.9168 135.045 92.1453 132.451 93 122L81 122M54 136L61 146L61 135L54 136M65 135L65 146L73 136L65 135M41 139C44.858 144.348 49.8623 146.91 56 149C53.1997 141.612 49.2837 135.532 41 139M71 149L86 139C77.6234 135.867 73.1427 140.739 71 149z"/>
</svg>
